<svg width="1440" height="900" viewBox="0 0 1440 900" fill="none" xmlns="http://www.w3.org/2000/svg">
  <rect width="1440" height="900" rx="28" fill="#fbf5f6"/>
  <rect x="0" y="0" width="188" height="900" fill="#fff"/>
  <rect x="24" y="32" width="42" height="42" rx="12" fill="#e9364f"/>
  <text x="37" y="60" font-family="Inter, Arial, sans-serif" font-size="21" font-weight="800" fill="#fff">小</text>
  <text x="80" y="50" font-family="Inter, Arial, sans-serif" font-size="18" font-weight="800" fill="#2b2024">XHS Collection</text>
  <text x="80" y="72" font-family="Inter, Arial, sans-serif" font-size="12" fill="#8d7d84">本地收藏复查台</text>
  <text x="28" y="132" font-family="Inter, Arial, sans-serif" font-size="12" font-weight="700" fill="#a99ba1">工作台</text>
  <rect x="16" y="154" width="156" height="42" rx="10" fill="#fde7eb"/>
  <text x="52" y="181" font-family="Inter, Arial, sans-serif" font-size="15" font-weight="700" fill="#e9364f">收藏库</text>
  <text x="52" y="230" font-family="Inter, Arial, sans-serif" font-size="15" font-weight="700" fill="#6d6066">分类标签</text>
  <text x="52" y="278" font-family="Inter, Arial, sans-serif" font-size="15" font-weight="700" fill="#6d6066">媒体</text>
  <text x="28" y="346" font-family="Inter, Arial, sans-serif" font-size="12" font-weight="700" fill="#a99ba1">数据</text>
  <text x="52" y="394" font-family="Inter, Arial, sans-serif" font-size="15" font-weight="700" fill="#6d6066">同步</text>
  <text x="52" y="442" font-family="Inter, Arial, sans-serif" font-size="15" font-weight="700" fill="#6d6066">导出</text>
  <text x="52" y="490" font-family="Inter, Arial, sans-serif" font-size="15" font-weight="700" fill="#6d6066">设置</text>

  <text x="228" y="58" font-family="Inter, Arial, sans-serif" font-size="26" font-weight="900" fill="#271b20">我的收藏库</text>
  <text x="228" y="88" font-family="Inter, Arial, sans-serif" font-size="14" fill="#8c7b82">1269 条收藏 · 30 个媒体已下载 · 1008 条需要整理</text>
  <rect x="968" y="34" width="288" height="44" rx="12" fill="#fff" stroke="#efd9df"/>
  <text x="1008" y="62" font-family="Inter, Arial, sans-serif" font-size="14" fill="#9c8c92">搜索标题、作者、标签、正文...</text>
  <rect x="1268" y="34" width="124" height="44" rx="12" fill="#e9364f"/>
  <text x="1298" y="62" font-family="Inter, Arial, sans-serif" font-size="14" font-weight="800" fill="#fff">同步收藏</text>

  <g>
    <rect x="228" y="118" width="118" height="70" rx="14" fill="#fff" stroke="#f0cbd4"/>
    <text x="292" y="150" text-anchor="middle" font-family="Inter, Arial, sans-serif" font-size="24" font-weight="900" fill="#271b20">1269</text>
    <text x="292" y="172" text-anchor="middle" font-family="Inter, Arial, sans-serif" font-size="12" fill="#8c7b82">全部收藏</text>
    <rect x="364" y="118" width="118" height="70" rx="14" fill="#fff" stroke="#f0cbd4"/>
    <text x="428" y="150" text-anchor="middle" font-family="Inter, Arial, sans-serif" font-size="24" font-weight="900" fill="#271b20">412</text>
    <text x="428" y="172" text-anchor="middle" font-family="Inter, Arial, sans-serif" font-size="12" fill="#8c7b82">待看</text>
    <rect x="500" y="118" width="118" height="70" rx="14" fill="#fff" stroke="#f0cbd4"/>
    <text x="564" y="150" text-anchor="middle" font-family="Inter, Arial, sans-serif" font-size="24" font-weight="900" fill="#271b20">86</text>
    <text x="564" y="172" text-anchor="middle" font-family="Inter, Arial, sans-serif" font-size="12" fill="#8c7b82">过时复查</text>
    <rect x="636" y="118" width="118" height="70" rx="14" fill="#fff" stroke="#f0cbd4"/>
    <text x="700" y="150" text-anchor="middle" font-family="Inter, Arial, sans-serif" font-size="24" font-weight="900" fill="#271b20">1314</text>
    <text x="700" y="172" text-anchor="middle" font-family="Inter, Arial, sans-serif" font-size="12" fill="#8c7b82">媒体资产</text>
  </g>

  <rect x="228" y="212" width="656" height="616" rx="18" fill="#fff" stroke="#f0dbe0"/>
  <rect x="246" y="232" width="68" height="32" rx="10" fill="#fde7eb"/>
  <text x="280" y="253" text-anchor="middle" font-family="Inter, Arial, sans-serif" font-size="13" font-weight="800" fill="#e9364f">全部</text>
  <text x="336" y="253" font-family="Inter, Arial, sans-serif" font-size="13" font-weight="700" fill="#8c7b82">待看</text>
  <text x="394" y="253" font-family="Inter, Arial, sans-serif" font-size="13" font-weight="700" fill="#8c7b82">已看</text>
  <text x="452" y="253" font-family="Inter, Arial, sans-serif" font-size="13" font-weight="700" fill="#8c7b82">过时</text>

  <g transform="translate(248 290)">
    <rect width="184" height="244" rx="16" fill="#fff" stroke="#f0cbd4"/>
    <rect x="14" y="14" width="156" height="110" rx="12" fill="#2b2024"/>
    <circle cx="92" cy="69" r="24" fill="#fff" fill-opacity=".72"/>
    <polygon points="86,56 86,82 108,69" fill="#e9364f"/>
    <text x="16" y="154" font-family="Inter, Arial, sans-serif" font-size="15" font-weight="800" fill="#271b20">如何整理灵感收藏？</text>
    <text x="16" y="180" font-family="Inter, Arial, sans-serif" font-size="12" fill="#8c7b82">Akring · 收藏序 #1</text>
    <rect x="16" y="198" width="50" height="24" rx="12" fill="#fff2cf"/>
    <text x="41" y="214" text-anchor="middle" font-family="Inter, Arial, sans-serif" font-size="12" fill="#9d6b00">待看</text>
  </g>
  <g transform="translate(456 290)">
    <rect width="184" height="244" rx="16" fill="#fff" stroke="#f0dbe0"/>
    <rect x="14" y="14" width="156" height="110" rx="12" fill="#e8f1ff"/>
    <circle cx="64" cy="66" r="28" fill="#7ac6b7"/>
    <rect x="96" y="36" width="48" height="60" rx="8" fill="#fff"/>
    <text x="16" y="154" font-family="Inter, Arial, sans-serif" font-size="15" font-weight="800" fill="#271b20">旅行前要确认什么</text>
    <text x="16" y="180" font-family="Inter, Arial, sans-serif" font-size="12" fill="#8c7b82">Local Guide · 日本</text>
    <rect x="16" y="198" width="50" height="24" rx="12" fill="#e3f6ec"/>
    <text x="41" y="214" text-anchor="middle" font-family="Inter, Arial, sans-serif" font-size="12" fill="#27825a">已看</text>
  </g>
  <g transform="translate(664 290)">
    <rect width="184" height="244" rx="16" fill="#fff" stroke="#f0dbe0"/>
    <rect x="14" y="14" width="156" height="110" rx="12" fill="#ffe4d5"/>
    <rect x="40" y="44" width="100" height="34" rx="8" fill="#e9364f"/>
    <text x="90" y="66" text-anchor="middle" font-family="Inter, Arial, sans-serif" font-size="16" font-weight="900" fill="#fff">AI Tips</text>
    <text x="16" y="154" font-family="Inter, Arial, sans-serif" font-size="15" font-weight="800" fill="#271b20">AI 工具列表更新</text>
    <text x="16" y="180" font-family="Inter, Arial, sans-serif" font-size="12" fill="#8c7b82">Tech Notes · AI</text>
    <rect x="16" y="198" width="50" height="24" rx="12" fill="#fff2cf"/>
    <text x="41" y="214" text-anchor="middle" font-family="Inter, Arial, sans-serif" font-size="12" fill="#9d6b00">待看</text>
  </g>
  <g transform="translate(248 558)">
    <rect width="184" height="244" rx="16" fill="#fff" stroke="#f0dbe0"/>
    <rect x="14" y="14" width="156" height="110" rx="12" fill="#eaf8ef"/>
    <circle cx="92" cy="69" r="42" fill="#75bf8e"/>
    <text x="16" y="154" font-family="Inter, Arial, sans-serif" font-size="15" font-weight="800" fill="#271b20">周末菜单备忘</text>
    <text x="16" y="180" font-family="Inter, Arial, sans-serif" font-size="12" fill="#8c7b82">厨房笔记 · 美食</text>
  </g>
  <g transform="translate(456 558)">
    <rect width="184" height="244" rx="16" fill="#fff" stroke="#f0dbe0"/>
    <rect x="14" y="14" width="156" height="110" rx="12" fill="#f0e8ff"/>
    <rect x="42" y="36" width="100" height="66" rx="12" fill="#8c7ae6"/>
    <text x="16" y="154" font-family="Inter, Arial, sans-serif" font-size="15" font-weight="800" fill="#271b20">产品灵感归档</text>
    <text x="16" y="180" font-family="Inter, Arial, sans-serif" font-size="12" fill="#8c7b82">Design · 产品</text>
  </g>
  <g transform="translate(664 558)">
    <rect width="184" height="244" rx="16" fill="#fff" stroke="#f0dbe0"/>
    <rect x="14" y="14" width="156" height="110" rx="12" fill="#f8eadc"/>
    <path d="M42 92 C74 32 120 34 142 92" stroke="#cc8044" stroke-width="18" stroke-linecap="round"/>
    <text x="16" y="154" font-family="Inter, Arial, sans-serif" font-size="15" font-weight="800" fill="#271b20">摄影构图清单</text>
    <text x="16" y="180" font-family="Inter, Arial, sans-serif" font-size="12" fill="#8c7b82">Camera · 艺术</text>
  </g>

  <rect x="910" y="118" width="456" height="710" rx="20" fill="#fff" stroke="#f0dbe0"/>
  <rect x="934" y="142" width="408" height="224" rx="16" fill="#2b2024"/>
  <circle cx="1138" cy="254" r="42" fill="#fff" fill-opacity=".7"/>
  <polygon points="1128,232 1128,276 1164,254" fill="#e9364f"/>
  <text x="934" y="408" font-family="Inter, Arial, sans-serif" font-size="25" font-weight="900" fill="#271b20">如何整理灵感收藏？</text>
  <text x="934" y="442" font-family="Inter, Arial, sans-serif" font-size="14" fill="#8c7b82">Akring · 收藏序 #1 · 视频</text>
  <text x="934" y="494" font-family="Inter, Arial, sans-serif" font-size="14" font-weight="800" fill="#6d6066">复查状态</text>
  <rect x="934" y="514" width="185" height="44" rx="12" fill="#fff2cf" stroke="#e7c46d"/>
  <text x="1026" y="542" text-anchor="middle" font-family="Inter, Arial, sans-serif" font-size="14" font-weight="800" fill="#9d6b00">待看</text>
  <rect x="1132" y="514" width="185" height="44" rx="12" fill="#f6fbf8" stroke="#d8eee3"/>
  <text x="1224" y="542" text-anchor="middle" font-family="Inter, Arial, sans-serif" font-size="14" font-weight="800" fill="#27825a">已看</text>
  <text x="934" y="606" font-family="Inter, Arial, sans-serif" font-size="14" font-weight="800" fill="#6d6066">正文</text>
  <text x="934" y="638" font-family="Inter, Arial, sans-serif" font-size="14" fill="#6d6066">把收藏按主题归类，给待看、已看、过时打状态，媒体保存在本地。</text>
  <rect x="934" y="694" width="76" height="30" rx="15" fill="#fde7eb"/>
  <text x="972" y="714" text-anchor="middle" font-family="Inter, Arial, sans-serif" font-size="13" font-weight="800" fill="#e9364f">AI</text>
  <rect x="1020" y="694" width="88" height="30" rx="15" fill="#f4edf0"/>
  <text x="1064" y="714" text-anchor="middle" font-family="Inter, Arial, sans-serif" font-size="13" font-weight="800" fill="#6d6066">待整理</text>
</svg>
